<svg xmlns="http://www.w3.org/2000/svg" viewBox="0 0 520 140" width="520" height="140">
  <defs>
    <linearGradient id="capsule-bg" x1="0%" y1="0%" x2="100%" y2="100%">
      <stop offset="0%" stop-color="#123F8F"/>
      <stop offset="100%" stop-color="#0A1F4A"/>
    </linearGradient>
    <linearGradient id="capsule-stroke" x1="0%" y1="0%" x2="100%" y2="0%">
      <stop offset="0%" stop-color="#7BC1FF"/>
      <stop offset="55%" stop-color="#4D88E8"/>
      <stop offset="100%" stop-color="#9FD9FF"/>
    </linearGradient>
    <linearGradient id="accent-gold" x1="0%" y1="0%" x2="0%" y2="100%">
      <stop offset="0%" stop-color="#FFE186"/>
      <stop offset="100%" stop-color="#F0A012"/>
    </linearGradient>
    <radialGradient id="ball-yellow" cx="35%" cy="30%" r="70%">
      <stop offset="0%" stop-color="#FFEFA8"/>
      <stop offset="100%" stop-color="#E9A411"/>
    </radialGradient>
    <radialGradient id="ball-blue" cx="35%" cy="30%" r="70%">
      <stop offset="0%" stop-color="#9FD3FF"/>
      <stop offset="100%" stop-color="#2F63D4"/>
    </radialGradient>
    <radialGradient id="ball-red" cx="35%" cy="30%" r="70%">
      <stop offset="0%" stop-color="#FFA3A3"/>
      <stop offset="100%" stop-color="#CC2E2E"/>
    </radialGradient>
    <filter id="shadow" x="-8%" y="-20%" width="120%" height="160%">
      <feDropShadow dx="0" dy="4" stdDeviation="6" flood-color="#020C21" flood-opacity="0.45"/>
    </filter>
  </defs>

  <g filter="url(#shadow)">
    <rect x="6" y="8" width="508" height="124" rx="62" fill="url(#capsule-bg)"/>
    <rect x="6" y="8" width="508" height="124" rx="62" fill="none" stroke="url(#capsule-stroke)" stroke-width="2.2"/>
    <rect x="16" y="18" width="488" height="52" rx="26" fill="#FFFFFF" opacity="0.08"/>
  </g>

  <g transform="translate(28 26)">
    <circle cx="44" cy="44" r="42" fill="#0A245A" stroke="#78BFFF" stroke-width="2"/>
    <circle cx="29" cy="32" r="10.5" fill="url(#ball-yellow)"/>
    <circle cx="49" cy="30" r="10.5" fill="url(#ball-blue)"/>
    <circle cx="39" cy="49" r="10.5" fill="url(#ball-red)"/>
    <text x="29" y="35" text-anchor="middle" font-family="'Segoe UI', Arial, sans-serif" font-size="7.5" font-weight="900" fill="#FFFFFF">7</text>
    <text x="49" y="33" text-anchor="middle" font-family="'Segoe UI', Arial, sans-serif" font-size="7.5" font-weight="900" fill="#FFFFFF">14</text>
    <text x="39" y="52" text-anchor="middle" font-family="'Segoe UI', Arial, sans-serif" font-size="7.5" font-weight="900" fill="#FFFFFF">23</text>

    <rect x="19" y="59" width="8" height="15" rx="2" fill="#8BC5FF" opacity="0.88"/>
    <rect x="31" y="54" width="8" height="20" rx="2" fill="#9CD0FF" opacity="0.9"/>
    <rect x="43" y="49" width="8" height="25" rx="2" fill="#B0DBFF" opacity="0.92"/>
    <rect x="55" y="42" width="8" height="32" rx="2" fill="#C3E5FF" opacity="0.95"/>
    <path d="M23 58 L35 50 L47 54 L59 39" fill="none" stroke="url(#accent-gold)" stroke-width="3" stroke-linecap="round" stroke-linejoin="round"/>
    <path d="M56 37 L61 39 L58 44" fill="none" stroke="url(#accent-gold)" stroke-width="3" stroke-linecap="round" stroke-linejoin="round"/>
  </g>

  <g transform="translate(134 0)">
    <text x="18" y="72" font-family="'Segoe UI', Arial, sans-serif" font-size="46" font-weight="900" letter-spacing="1.2" fill="#FFFFFF">LOTTO</text>
    <text x="226" y="72" font-family="'Segoe UI', Arial, sans-serif" font-size="46" font-weight="900" letter-spacing="1.2" fill="url(#accent-gold)">RANK</text>
    <text x="20" y="97" font-family="'Segoe UI', Arial, sans-serif" font-size="12.5" font-weight="600" letter-spacing="2" fill="#AFCFFF">KOREA LOTTERY ANALYTICS PLATFORM</text>
    <text x="20" y="116" font-family="'Segoe UI', Arial, sans-serif" font-size="12.5" font-weight="700" fill="#DDEBFF">www.lottorank.co.kr</text>
  </g>
</svg>
